<?xml version="1.0" encoding="UTF-8"?>
<svg version="1.1" xmlns="http://www.w3.org/2000/svg" width="363" height="226">
<path d="M0 0 C119.79 0 239.58 0 363 0 C363 74.58 363 149.16 363 226 C243.21 226 123.42 226 0 226 C0 151.42 0 76.84 0 0 Z " fill="#FEFEFE" transform="translate(0,0)"/>
<path d="M0 0 C0.77423309 0.00248749 1.54846619 0.00497498 2.34616089 0.00753784 C14.1196242 0.06599143 25.38172254 0.58172128 36.875 3.3125 C37.84099121 3.5276123 38.80698242 3.74272461 39.80224609 3.96435547 C62.23436511 9.04078984 82.31461455 17.6921411 100.875 31.3125 C101.69613281 31.90417969 102.51726562 32.49585938 103.36328125 33.10546875 C107.85762124 36.46624519 112.03248611 40.17168518 116.1875 43.9375 C116.94389771 44.62090454 116.94389771 44.62090454 117.71557617 45.31811523 C120.74740045 48.11270598 123.38123992 51.03092498 125.875 54.3125 C112.99278632 67.37145137 112.99278632 67.37145137 106.6328125 72.7734375 C104.19329262 74.90937269 101.95418481 77.22261431 99.68359375 79.53515625 C96.5505759 82.61403988 93.21325735 85.45980735 89.875 88.3125 C87.22221073 87.10668669 85.95381987 86.41383983 84.125 84.0625 C80.80756222 80.00785382 76.57826289 76.66413145 71.875 74.3125 C71.875 73.6525 71.875 72.9925 71.875 72.3125 C71.215 72.085625 70.555 71.85875 69.875 71.625 C67.40841979 70.54587116 65.43572124 69.4368819 63.19921875 67.98046875 C38.36040207 52.32392139 5.70973712 47.13334906 -22.9453125 53.27734375 C-35.31534186 56.21938899 -46.65444127 60.72116343 -57.8671875 66.67578125 C-60.38842223 67.94244474 -62.37749755 68.8361742 -65.125 69.3125 C-65.125 69.9725 -65.125 70.6325 -65.125 71.3125 C-66.62574786 72.45184327 -68.17944073 73.5214953 -69.75 74.5625 C-93.91062907 91.82896499 -107.91975638 116.99421692 -115.125 145.3125 C-116.115 153.5625 -117.105 161.8125 -118.125 170.3125 C-134.955 170.3125 -151.785 170.3125 -169.125 170.3125 C-169.125 142.83758092 -163.44784851 116.40876305 -150.125 92.3125 C-149.62226563 91.33410156 -149.11953125 90.35570313 -148.6015625 89.34765625 C-130.58292989 54.65432218 -97.96468266 24.29677313 -60.7109375 11.56640625 C-57.12431799 10.36824644 -57.12431799 10.36824644 -53.765625 8.8125 C-49.41343576 7.01932332 -45.06463412 5.86478353 -40.5 4.75 C-39.68660156 4.54181641 -38.87320313 4.33363281 -38.03515625 4.11914062 C-25.32858486 0.96719951 -13.0311084 -0.06698944 0 0 Z " fill="#2FA3FB" transform="translate(178.125,28.6875)"/>
<path d="M0 0 C0 0.66 0 1.32 0 2 C0.70125 2.226875 1.4025 2.45375 2.125 2.6875 C8.11516293 5.4221396 11.99713742 9.93755615 16 15 C18.79999806 13.71579891 20.91524918 12.35456081 23.14453125 10.234375 C23.73202148 9.68048096 24.31951172 9.12658691 24.92480469 8.5559082 C25.54774414 7.9599585 26.17068359 7.36400879 26.8125 6.75 C28.14698774 5.48812506 29.48162783 4.22641121 30.81640625 2.96484375 C31.50234863 2.31370605 32.18829102 1.66256836 32.89501953 0.99169922 C36.32711114 -2.25569156 39.79016882 -5.46972512 43.25 -8.6875 C44.4849763 -9.83659368 45.71939253 -10.98628973 46.953125 -12.13671875 C47.47036133 -12.61842529 47.98759766 -13.10013184 48.52050781 -13.59643555 C50.04071634 -15.03862677 51.52482068 -16.51189499 53 -18 C57.67692308 -16.52307692 57.67692308 -16.52307692 59.3125 -13.875 C59.539375 -13.25625 59.76625 -12.6375 60 -12 C60.66 -12 61.32 -12 62 -12 C62 -11.34 62 -10.68 62 -10 C62.99 -9.67 63.98 -9.34 65 -9 C65.6875 -6.9375 65.6875 -6.9375 66 -5 C66.66 -5 67.32 -5 68 -5 C71 -0.61538462 71 -0.61538462 71 2 C71.66 2 72.32 2 73 2 C74.4375 4.01171875 74.4375 4.01171875 76 6.6875 C76.515625 7.55761719 77.03125 8.42773438 77.5625 9.32421875 C78.91277319 11.83763487 79.94432555 14.35418829 81 17 C81.639375 17.9075 82.27875 18.815 82.9375 19.75 C85.58639064 23.9240095 88 28.9477873 88 34 C88.66 34 89.32 34 90 34 C107.96401107 83.58997232 107.96401107 83.58997232 101 101 C83.18 101 65.36 101 47 101 C46.01 93.08 45.02 85.16 44 77 C43.34 74.03 42.68 71.06 42 68 C41.875 64.9375 41.875 64.9375 42 63 C41.34 63 40.68 63 40 63 C39.32532438 61.25307205 38.66055844 59.50231475 38 57.75 C37.62875 56.77546875 37.2575 55.8009375 36.875 54.796875 C36 52 36 52 36 48 C35.01 47.67 34.02 47.34 33 47 C32.04501962 44.45338565 31.47470072 41.89398398 30.84375 39.25 C30.42609375 38.13625 30.42609375 38.13625 30 37 C29.01 36.67 28.02 36.34 27 36 C25.8125 33.4375 25.8125 33.4375 25 31 C24.34 31 23.68 31 23 31 C21.59765625 29.42578125 21.59765625 29.42578125 20.0625 27.3125 C19.53140625 26.58289063 19.0003125 25.85328125 18.453125 25.1015625 C16.85834927 22.79513954 15.44220936 20.40368226 14 18 C13.505 17.505 13.01 17.01 12.5 16.5 C11 15 11 15 9.703125 12.6640625 C6.1424112 7.09432211 0.0863772 2.59358238 -6.0625 0.1875 C-7.031875 -0.204375 -8.00125 -0.59625 -9 -1 C-9.33 -1.99 -9.66 -2.98 -10 -4 C-11.76326026 -5.18445783 -11.76326026 -5.18445783 -13.98046875 -6.12109375 C-14.80853027 -6.4975 -15.6365918 -6.87390625 -16.48974609 -7.26171875 C-17.38000488 -7.64972656 -18.27026367 -8.03773437 -19.1875 -8.4375 C-20.09064941 -8.83710937 -20.99379883 -9.23671875 -21.92431641 -9.6484375 C-33.57111034 -14.69159228 -45.14320358 -18.16944271 -57.92578125 -18.1328125 C-58.67280807 -18.13376923 -59.4198349 -18.13472595 -60.1894989 -18.13571167 C-61.76362187 -18.13638919 -63.3377477 -18.13456487 -64.91186523 -18.13037109 C-67.29482458 -18.12503955 -69.6775935 -18.13031892 -72.06054688 -18.13671875 C-84.36683136 -18.78200105 -84.36683136 -18.78200105 -96 -16 C-98.6723621 -15.86584528 -101.32250488 -15.95681459 -104 -16 C-104 -15.34 -104 -14.68 -104 -14 C-106.27069422 -13.18710947 -108.54154901 -12.37467262 -110.8125 -11.5625 C-111.45509766 -11.33240234 -112.09769531 -11.10230469 -112.75976562 -10.86523438 C-115.49928283 -9.88582149 -118.23986086 -8.92004638 -121 -8 C-121.226875 -7.38125 -121.45375 -6.7625 -121.6875 -6.125 C-123.51833515 -3.1607907 -125.67172448 -2.8477146 -128.9296875 -1.90625 C-131.57547787 -0.74809271 -132.99653708 0.92887792 -135 3 C-136.79582896 4.3352194 -138.61017141 5.64572497 -140.4375 6.9375 C-149.67336376 13.78809173 -158.40711829 21.92714726 -164.8515625 31.51171875 C-166 33 -166 33 -169 35 C-169.79878123 36.81137519 -169.79878123 36.81137519 -170.3125 38.9375 C-171.45868135 42.71386593 -172.96601817 45.89460437 -174.9375 49.3125 C-179.54740278 57.50023777 -182.03793515 65.70003977 -183 75 C-183.47566406 76.32837891 -183.47566406 76.32837891 -183.9609375 77.68359375 C-185.43597747 82.39152207 -185.76176183 87.09114514 -186.2109375 91.98632812 C-186.59133267 95.70173957 -186.89151161 97.83726741 -189 101 C-191.25259399 101.36076355 -191.25259399 101.36076355 -194.09228516 101.34057617 C-195.15323395 101.34034958 -196.21418274 101.34012299 -197.30728149 101.33988953 C-199.03076309 101.31666374 -199.03076309 101.31666374 -200.7890625 101.29296875 C-201.96262299 101.28872391 -203.13618347 101.28447906 -204.3453064 101.28010559 C-208.10543454 101.26326976 -211.86503297 101.22560777 -215.625 101.1875 C-218.16926311 101.17245954 -220.7135346 101.15877003 -223.2578125 101.14648438 C-229.50539005 101.11335017 -235.75265719 101.06310206 -242 101 C-246.03213196 88.90360413 -241.73803671 71.76235551 -238 60 C-237.67 60 -237.34 60 -237 60 C-237.72239532 68.41143765 -238.61742458 76.79847167 -239.5625 85.1875 C-240.036875 89.415625 -240.51125 93.64375 -241 98 C-224.17 98 -207.34 98 -190 98 C-190 94.37 -190 90.74 -190 87 C-189.70431496 84.09243048 -189.37016812 81.30503087 -188.875 78.4375 C-188.67813599 77.29595459 -188.67813599 77.29595459 -188.47729492 76.13134766 C-182.98978609 46.62424606 -166.48820976 18.98963195 -142.17578125 1.07421875 C-139 -1 -139 -1 -137 -1 C-137 -1.66 -137 -2.32 -137 -3 C-134.08796393 -4.45601803 -131.17525121 -5.91028739 -128.2578125 -7.35546875 C-126.3807574 -8.30299896 -124.51379076 -9.27257184 -122.6796875 -10.30078125 C-85.81197706 -30.58462911 -33.27632184 -25.1820814 0 0 Z " fill="#DBDBDB" transform="translate(250,101)"/>
<path d="M0 0 C0 0.66 0 1.32 0 2 C0.70125 2.226875 1.4025 2.45375 2.125 2.6875 C7.51063651 5.14616015 10.97448379 8.84357888 14.59375 13.4140625 C16.21362167 15.24091778 17.98678754 16.70311825 19.875 18.25 C24.53747226 22.24765445 27.7331114 26.83237622 31 32 C31.5878125 32.9178125 32.175625 33.835625 32.78125 34.78125 C44.28203313 53.54568564 51.01982432 75.94157776 50 98 C49.34 97.67 48.68 97.34 48 97 C47.65283203 95.19677734 47.65283203 95.19677734 47.5078125 92.8359375 C47.444729 91.96791504 47.38164551 91.09989258 47.31665039 90.20556641 C47.22178345 88.80443604 47.22178345 88.80443604 47.125 87.375 C46.16375259 75.50314064 43.836029 64.92632221 39 54 C38.2884375 52.2984375 38.2884375 52.2984375 37.5625 50.5625 C35.83840896 46.63157242 33.98166592 42.80629417 32 39 C31.50306641 38.03126953 31.50306641 38.03126953 30.99609375 37.04296875 C29.05973903 33.43603349 27.25428128 31.38647294 24 29 C23.70174316 28.22454834 23.40348633 27.44909668 23.09619141 26.65014648 C21.93130548 23.83392449 20.73153864 22.35775365 18.5859375 20.22265625 C17.56693359 19.20461914 17.56693359 19.20461914 16.52734375 18.16601562 C15.81707031 17.47185547 15.10679687 16.77769531 14.375 16.0625 C13.34439453 15.02706055 13.34439453 15.02706055 12.29296875 13.97070312 C6.85675026 8.5905807 1.26314989 3.1635743 -5.9375 0.3125 C-6.948125 -0.120625 -7.95875 -0.55375 -9 -1 C-9.33 -1.99 -9.66 -2.98 -10 -4 C-11.76326026 -5.18445783 -11.76326026 -5.18445783 -13.98046875 -6.12109375 C-14.80853027 -6.4975 -15.6365918 -6.87390625 -16.48974609 -7.26171875 C-17.38000488 -7.64972656 -18.27026367 -8.03773437 -19.1875 -8.4375 C-20.09064941 -8.83710937 -20.99379883 -9.23671875 -21.92431641 -9.6484375 C-33.57111034 -14.69159228 -45.14320358 -18.16944271 -57.92578125 -18.1328125 C-58.67280807 -18.13376923 -59.4198349 -18.13472595 -60.1894989 -18.13571167 C-61.76362187 -18.13638919 -63.3377477 -18.13456487 -64.91186523 -18.13037109 C-67.29482458 -18.12503955 -69.6775935 -18.13031892 -72.06054688 -18.13671875 C-84.36683136 -18.78200105 -84.36683136 -18.78200105 -96 -16 C-98.6723621 -15.86584528 -101.32250488 -15.95681459 -104 -16 C-104 -15.34 -104 -14.68 -104 -14 C-106.27069422 -13.18710947 -108.54154901 -12.37467262 -110.8125 -11.5625 C-111.45509766 -11.33240234 -112.09769531 -11.10230469 -112.75976562 -10.86523438 C-115.49928283 -9.88582149 -118.23986086 -8.92004638 -121 -8 C-121.226875 -7.38125 -121.45375 -6.7625 -121.6875 -6.125 C-123.51833515 -3.1607907 -125.67172448 -2.8477146 -128.9296875 -1.90625 C-131.57547787 -0.74809271 -132.99653708 0.92887792 -135 3 C-136.79582896 4.3352194 -138.61017141 5.64572497 -140.4375 6.9375 C-149.67336376 13.78809173 -158.40711829 21.92714726 -164.8515625 31.51171875 C-166 33 -166 33 -169 35 C-169.79878123 36.81137519 -169.79878123 36.81137519 -170.3125 38.9375 C-171.45868135 42.71386593 -172.96601817 45.89460437 -174.9375 49.3125 C-179.54740278 57.50023777 -182.03793515 65.70003977 -183 75 C-183.47566406 76.32837891 -183.47566406 76.32837891 -183.9609375 77.68359375 C-185.43597747 82.39152207 -185.76176183 87.09114514 -186.2109375 91.98632812 C-186.59133267 95.70173957 -186.89151161 97.83726741 -189 101 C-191.25259399 101.36076355 -191.25259399 101.36076355 -194.09228516 101.34057617 C-195.15323395 101.34034958 -196.21418274 101.34012299 -197.30728149 101.33988953 C-199.03076309 101.31666374 -199.03076309 101.31666374 -200.7890625 101.29296875 C-201.96262299 101.28872391 -203.13618347 101.28447906 -204.3453064 101.28010559 C-208.10543454 101.26326976 -211.86503297 101.22560777 -215.625 101.1875 C-218.16926311 101.17245954 -220.7135346 101.15877003 -223.2578125 101.14648438 C-229.50539005 101.11335017 -235.75265719 101.06310206 -242 101 C-246.03213196 88.90360413 -241.73803671 71.76235551 -238 60 C-237.67 60 -237.34 60 -237 60 C-237.72239532 68.41143765 -238.61742458 76.79847167 -239.5625 85.1875 C-240.036875 89.415625 -240.51125 93.64375 -241 98 C-224.17 98 -207.34 98 -190 98 C-190 94.37 -190 90.74 -190 87 C-189.70431496 84.09243048 -189.37016812 81.30503087 -188.875 78.4375 C-188.67813599 77.29595459 -188.67813599 77.29595459 -188.47729492 76.13134766 C-182.98978609 46.62424606 -166.48820976 18.98963195 -142.17578125 1.07421875 C-139 -1 -139 -1 -137 -1 C-137 -1.66 -137 -2.32 -137 -3 C-134.08796393 -4.45601803 -131.17525121 -5.91028739 -128.2578125 -7.35546875 C-126.3807574 -8.30299896 -124.51379076 -9.27257184 -122.6796875 -10.30078125 C-85.81197706 -30.58462911 -33.27632184 -25.1820814 0 0 Z " fill="#D0D2D2" transform="translate(250,101)"/>
<path d="M0 0 C0 0.66 0 1.32 0 2 C0.70125 2.226875 1.4025 2.45375 2.125 2.6875 C7.51063651 5.14616015 10.97448379 8.84357888 14.59375 13.4140625 C16.21362167 15.24091778 17.98678754 16.70311825 19.875 18.25 C24.53747226 22.24765445 27.7331114 26.83237622 31 32 C31.5878125 32.9178125 32.175625 33.835625 32.78125 34.78125 C44.28203313 53.54568564 51.01982432 75.94157776 50 98 C49.34 97.67 48.68 97.34 48 97 C47.65283203 95.19677734 47.65283203 95.19677734 47.5078125 92.8359375 C47.444729 91.96791504 47.38164551 91.09989258 47.31665039 90.20556641 C47.25340576 89.27147949 47.19016113 88.33739258 47.125 87.375 C46.16375259 75.50314064 43.836029 64.92632221 39 54 C38.525625 52.865625 38.05125 51.73125 37.5625 50.5625 C35.83840896 46.63157242 33.98166592 42.80629417 32 39 C31.66871094 38.35417969 31.33742188 37.70835937 30.99609375 37.04296875 C29.05973903 33.43603349 27.25428128 31.38647294 24 29 C23.70174316 28.22454834 23.40348633 27.44909668 23.09619141 26.65014648 C21.93130548 23.83392449 20.73153864 22.35775365 18.5859375 20.22265625 C17.90660156 19.54396484 17.22726562 18.86527344 16.52734375 18.16601562 C15.81707031 17.47185547 15.10679687 16.77769531 14.375 16.0625 C13.34439453 15.02706055 13.34439453 15.02706055 12.29296875 13.97070312 C6.85675026 8.5905807 1.26314989 3.1635743 -5.9375 0.3125 C-6.948125 -0.120625 -7.95875 -0.55375 -9 -1 C-9.33 -1.99 -9.66 -2.98 -10 -4 C-11.76326026 -5.18445783 -11.76326026 -5.18445783 -13.98046875 -6.12109375 C-14.80853027 -6.4975 -15.6365918 -6.87390625 -16.48974609 -7.26171875 C-17.38000488 -7.64972656 -18.27026367 -8.03773437 -19.1875 -8.4375 C-20.09064941 -8.83710937 -20.99379883 -9.23671875 -21.92431641 -9.6484375 C-33.57111034 -14.69159228 -45.14320358 -18.16944271 -57.92578125 -18.1328125 C-58.67280807 -18.13376923 -59.4198349 -18.13472595 -60.1894989 -18.13571167 C-61.76362187 -18.13638919 -63.3377477 -18.13456487 -64.91186523 -18.13037109 C-67.29482458 -18.12503955 -69.6775935 -18.13031892 -72.06054688 -18.13671875 C-84.36683136 -18.78200105 -84.36683136 -18.78200105 -96 -16 C-98.6723621 -15.86584528 -101.32250488 -15.95681459 -104 -16 C-104 -15.34 -104 -14.68 -104 -14 C-104.9178125 -13.68546875 -105.835625 -13.3709375 -106.78125 -13.046875 C-112.78082374 -10.95458668 -118.6687135 -8.89086255 -124.28515625 -5.88671875 C-126 -5 -126 -5 -129.375 -3.6875 C-142.20150078 2.28345726 -152.23823871 13.0260265 -162 23 C-162 20 -162 20 -160.64233398 18.27001953 C-159.70369507 17.33585205 -159.70369507 17.33585205 -158.74609375 16.3828125 C-158.05580078 15.69316406 -157.36550781 15.00351563 -156.65429688 14.29296875 C-155.92275391 13.57753906 -155.19121094 12.86210938 -154.4375 12.125 C-153.73302734 11.41730469 -153.02855469 10.70960937 -152.30273438 9.98046875 C-141.20980272 -1 -141.20980272 -1 -137 -1 C-137 -1.66 -137 -2.32 -137 -3 C-134.08796393 -4.45601803 -131.17525121 -5.91028739 -128.2578125 -7.35546875 C-126.3807574 -8.30299896 -124.51379076 -9.27257184 -122.6796875 -10.30078125 C-85.81197706 -30.58462911 -33.27632184 -25.1820814 0 0 Z " fill="#A1ABB2" transform="translate(250,101)"/>
<path d="M0 0 C1.50154748 -0.0102466 3.00306756 -0.02710598 4.50445557 -0.05126953 C24.54632327 -0.33394829 43.48514933 4.89998011 60.66470337 15.421875 C60.66470337 16.411875 60.66470337 17.401875 60.66470337 18.421875 C61.51032837 18.463125 62.35595337 18.504375 63.22720337 18.546875 C67.86765892 19.72808187 70.23525355 22.2067658 73.66470337 25.421875 C74.97196257 26.5529606 76.28427946 27.67823394 77.60220337 28.796875 C78.6230367 29.671875 79.64387004 30.546875 80.66470337 31.421875 C80.00470337 31.751875 79.34470337 32.081875 78.66470337 32.421875 C76.03970337 31.109375 76.03970337 31.109375 73.66470337 29.421875 C73.66470337 28.761875 73.66470337 28.101875 73.66470337 27.421875 C73.04595337 27.31875 72.42720337 27.215625 71.78970337 27.109375 C69.66470337 26.421875 69.66470337 26.421875 67.66470337 23.421875 C65.01638604 22.00313357 62.37883716 20.70043389 59.66470337 19.421875 C57.89230954 18.52913306 56.12148732 17.63326451 54.35220337 16.734375 C51.77678125 15.42847022 49.41037176 14.3370978 46.66470337 13.421875 C46.66470337 12.761875 46.66470337 12.101875 46.66470337 11.421875 C45.67470337 11.421875 44.68470337 11.421875 43.66470337 11.421875 C43.66470337 10.761875 43.66470337 10.101875 43.66470337 9.421875 C36.66778607 7.67264567 29.85741176 6.88435033 22.66470337 6.421875 C22.66470337 5.761875 22.66470337 5.101875 22.66470337 4.421875 C14.18546661 3.70242461 5.73680381 3.29780847 -2.77279663 3.234375 C-4.01368042 3.21503906 -4.01368042 3.21503906 -5.27963257 3.1953125 C-10.6468116 3.18667318 -15.16931969 3.97138471 -20.33529663 5.421875 C-22.03685913 5.6384375 -22.03685913 5.6384375 -23.77279663 5.859375 C-27.40203017 6.43241187 -30.5494756 7.45397754 -34.00326538 8.66015625 C-39.63338772 10.49914093 -45.49064628 11.52269802 -51.33529663 12.421875 C-48.86705262 9.51168189 -46.40449565 8.48647304 -42.83529663 7.234375 C-41.87623413 6.89019531 -40.91717163 6.54601562 -39.92904663 6.19140625 C-37.33529663 5.421875 -37.33529663 5.421875 -34.33529663 5.421875 C-34.33529663 4.761875 -34.33529663 4.101875 -34.33529663 3.421875 C-22.94043818 0.8660189 -11.64500289 0.07872921 0 0 Z " fill="#D5D5D5" transform="translate(180.33529663085938,81.578125)"/>
<path d="M0 0 C2.97 0.99 5.94 1.98 9 3 C9 3.66 9 4.32 9 5 C9.70125 5.226875 10.4025 5.45375 11.125 5.6875 C16.51063651 8.14616015 19.97448379 11.84357888 23.59375 16.4140625 C25.21362167 18.24091778 26.98678754 19.70311825 28.875 21.25 C33.53747226 25.24765445 36.7331114 29.83237622 40 35 C40.5878125 35.9178125 41.175625 36.835625 41.78125 37.78125 C53.28203313 56.54568564 60.01982432 78.94157776 59 101 C58.01 100.505 58.01 100.505 57 100 C56.65283203 98.19677734 56.65283203 98.19677734 56.5078125 95.8359375 C56.444729 94.96791504 56.38164551 94.09989258 56.31665039 93.20556641 C56.25340576 92.27147949 56.19016113 91.33739258 56.125 90.375 C55.16375259 78.50314064 52.836029 67.92632221 48 57 C47.525625 55.865625 47.05125 54.73125 46.5625 53.5625 C44.83840896 49.63157242 42.98166592 45.80629417 41 42 C40.66871094 41.35417969 40.33742188 40.70835937 39.99609375 40.04296875 C38.05973903 36.43603349 36.25428128 34.38647294 33 32 C32.70174316 31.22454834 32.40348633 30.44909668 32.09619141 29.65014648 C30.93130548 26.83392449 29.73153864 25.35775365 27.5859375 23.22265625 C26.90660156 22.54396484 26.22726562 21.86527344 25.52734375 21.16601562 C24.81707031 20.47185547 24.10679687 19.77769531 23.375 19.0625 C22.68792969 18.37220703 22.00085938 17.68191406 21.29296875 16.97070312 C14.85615836 10.60031386 8.53793101 5.20172413 0 2 C0 1.34 0 0.68 0 0 Z " fill="#B4B4B4" transform="translate(241,98)"/>
<path d="M0 0 C0.33 0 0.66 0 1 0 C0.27760468 8.41143765 -0.61742458 16.79847167 -1.5625 25.1875 C-2.036875 29.415625 -2.51125 33.64375 -3 38 C13.83 38 30.66 38 48 38 C47.67 38.99 47.34 39.98 47 41 C30.17 41 13.34 41 -4 41 C-8.03213196 28.90360413 -3.73803671 11.76235551 0 0 Z " fill="#BABBBD" transform="translate(12,161)"/>
<path d="M0 0 C0.66 0 1.32 0 2 0 C0.8970536 4.08090167 -0.7878098 7.48295852 -2.875 11.125 C-7.47784992 19.39662516 -10.03030633 27.62629456 -11 37 C-11.31710938 37.88558594 -11.63421875 38.77117187 -11.9609375 39.68359375 C-13.43597747 44.39152207 -13.76176183 49.09114514 -14.2109375 53.98632812 C-14.59133267 57.70173957 -14.89151161 59.83726741 -17 63 C-17.66 62.67 -18.32 62.34 -19 62 C-16.22722991 29.86848779 -16.22722991 29.86848779 -8 15 C-6.90832538 12.81665076 -5.82482347 10.62919383 -4.75 8.4375 C-3.28190181 5.46578511 -1.84132614 2.76198921 0 0 Z " fill="#E6E6E6" transform="translate(78,139)"/>
<path d="M0 0 C-3.26551403 2.17700936 -4.06943003 2.22689194 -7.82421875 2.125 C-8.77103516 2.10953125 -9.71785156 2.0940625 -10.69335938 2.078125 C-12.66993523 2.02655094 -14.64649813 1.97447776 -16.62304688 1.921875 C-22.50711591 1.82639315 -27.35269223 2.34605574 -33 4 C-34.7015625 4.2165625 -34.7015625 4.2165625 -36.4375 4.4375 C-40.06673354 5.01053687 -43.21417897 6.03210254 -46.66796875 7.23828125 C-52.29809109 9.07726593 -58.15534965 10.10082302 -64 11 C-61.53175599 8.08980689 -59.06919902 7.06459804 -55.5 5.8125 C-54.5409375 5.46832031 -53.581875 5.12414062 -52.59375 4.76953125 C-50 4 -50 4 -47 4 C-47 3.34 -47 2.68 -47 2 C-31.30238263 -0.00471282 -15.81238101 -0.23221978 0 0 Z " fill="#EBEBEB" transform="translate(193,83)"/>
<path d="M0 0 C0.66 0 1.32 0 2 0 C0.48646366 4.13133645 -1.52460825 7.77157103 -3.75 11.5625 C-11.89610363 25.66592635 -18.65717213 40.13437501 -22.359375 56.05859375 C-22.57078125 56.69925781 -22.7821875 57.33992188 -23 58 C-23.99 58.495 -23.99 58.495 -25 59 C-23.04712967 38.67420674 -11.97825429 16.4208932 0 0 Z " fill="#E0E5E9" transform="translate(37,102)"/>
<path d="M0 0 C0.66 0 1.32 0 2 0 C7.82116985 14.47239461 10.58235718 27.29520206 11.75048828 42.79272461 C11.99281426 44.9364322 12.42616327 46.92287685 13 49 C12.01 49 11.02 49 10 49 C9.91959473 48.3201001 9.83918945 47.6402002 9.75634766 46.93969727 C9.38392108 43.81338598 9.00450703 40.68795937 8.625 37.5625 C8.49867188 36.49322266 8.37234375 35.42394531 8.2421875 34.32226562 C7.55922366 28.73903621 6.74176863 23.28962393 5.39257812 17.82617188 C4.89805719 15.5257884 4.84881544 13.34336075 5 11 C4.34 11 3.68 11 3 11 C2.01 7.37 1.02 3.74 0 0 Z " fill="#E2E2E2" transform="translate(287,153)"/>
<path d="M0 0 C7.52872388 11.29308581 8.60914204 28.82448322 8 42 C7.34 41.67 6.68 41.34 6 41 C5.65283203 39.19677734 5.65283203 39.19677734 5.5078125 36.8359375 C5.41294556 35.53354126 5.41294556 35.53354126 5.31616211 34.20483398 C5.25307861 33.27098877 5.18999512 32.33714355 5.125 31.375 C4.39014849 22.14573658 2.7186188 13.83845332 0 5 C-0.68359375 2.66015625 -0.68359375 2.66015625 -1 1 C-0.67 0.67 -0.34 0.34 0 0 Z " fill="#C4C4C4" transform="translate(292,157)"/>
<path d="M0 0 C0.91123853 2.9763506 1.01655629 5.10356785 0.4765625 8.16015625 C0.2763147 9.34363647 0.2763147 9.34363647 0.07202148 10.55102539 C-0.07549561 11.37981201 -0.2230127 12.20859863 -0.375 13.0625 C-1.45388746 19.39908137 -2.36043856 25.63760967 -2.69140625 32.06640625 C-3 34 -3 34 -5 36 C-5.41058029 29.09616838 -4.76567679 22.54389045 -3.625 15.75 C-3.43587036 14.61618896 -3.43587036 14.61618896 -3.24291992 13.45947266 C-2.4354015 8.86825441 -1.35681985 4.45980786 0 0 Z " fill="#C3CBD0" transform="translate(65,163)"/>
<path d="M0 0 C0.66 0.33 1.32 0.66 2 1 C1.59471656 4.377362 1.18377654 7.49204164 0.0234375 10.69921875 C-1.43470977 15.40202198 -1.7626181 20.10047694 -2.2109375 24.98632812 C-2.59133267 28.70173957 -2.89151161 30.83726741 -5 34 C-5.66 33.67 -6.32 33.34 -7 33 C-6.68933594 32.51660156 -6.37867188 32.03320312 -6.05859375 31.53515625 C-4.55638132 27.93760694 -4.39166156 24.28194839 -4.0625 20.4375 C-3.38051946 13.37707929 -2.23381466 6.76101236 0 0 Z " fill="#E8E8E8" transform="translate(66,168)"/>
<path d="M0 0 C7.506254 -0.65083127 14.02094121 0.25401338 21.1875 2.375 C22.31949829 2.70697388 22.31949829 2.70697388 23.47436523 3.0456543 C25.33929327 3.62784342 27.1735701 4.30641903 29 5 C29.33 5.66 29.66 6.32 30 7 C29.05898437 6.7834375 28.11796875 6.566875 27.1484375 6.34375 C25.90320313 6.0653125 24.65796875 5.786875 23.375 5.5 C22.14523438 5.2215625 20.91546875 4.943125 19.6484375 4.65625 C16.32847772 4.05908379 13.36091549 3.87590466 10 4 C10 3.34 10 2.68 10 2 C6.7 1.67 3.4 1.34 0 1 C0 0.67 0 0.34 0 0 Z " fill="#E0E0E0" transform="translate(193,84)"/>
<path d="M0 0 C0.33 0.66 0.66 1.32 1 2 C-0.86786739 6.88288163 -3.1996961 11.52794909 -5.5625 16.1875 C-6.01786133 17.09145508 -6.01786133 17.09145508 -6.48242188 18.01367188 C-7.32021734 19.67648597 -8.16003285 21.33828186 -9 23 C-9.66752508 24.33290378 -10.33465773 25.66600529 -11 27 C-12 25 -12 25 -11.25 22.3828125 C-8.17847035 14.37763834 -4.5417786 7.26422803 0 0 Z " fill="#B6BEC3" transform="translate(78,135)"/>
<path d="M0 0 C4.26912893 1.43859536 7.23391301 3.56814873 10.6875 6.4375 C11.64011719 7.21996094 12.59273437 8.00242187 13.57421875 8.80859375 C16 11 16 11 18 14 C15.0625 13.1875 15.0625 13.1875 12 12 C11.67 11.01 11.34 10.02 11 9 C9.66923011 8.65657551 8.33568021 8.32380126 7 8 C6.34 7.01 5.68 6.02 5 5 C4.13375 4.484375 3.2675 3.96875 2.375 3.4375 C1.59125 2.963125 0.8075 2.48875 0 2 C0 1.34 0 0.68 0 0 Z " fill="#D8D8D8" transform="translate(243,100)"/>
<path d="M0 0 C3.11906238 3.63550844 5.28722175 7.22548976 7.3125 11.5625 C7.84488281 12.67753906 8.37726563 13.79257813 8.92578125 14.94140625 C9.99026344 17.97227736 10.21351913 19.09748932 9 22 C7.79087687 19.58175375 6.5825407 17.16317304 5.37890625 14.7421875 C4.52863626 13.05128231 3.66432277 11.36725378 2.77734375 9.6953125 C0.89952234 6.12812487 0 4.11078103 0 0 Z " fill="#BABABA" transform="translate(282,136)"/>
<path d="M0 0 C2.64 0 5.28 0 8 0 C3.90598067 2.07952905 -0.27322633 3.89704154 -4.5 5.6875 C-5.25925781 6.02072266 -6.01851562 6.35394531 -6.80078125 6.69726562 C-7.53683594 7.00728516 -8.27289063 7.31730469 -9.03125 7.63671875 C-9.69705078 7.92248779 -10.36285156 8.20825684 -11.04882812 8.50268555 C-13.37163962 9.09472346 -14.75232767 8.75079022 -17 8 C-3.63106796 2 -3.63106796 2 0 2 C0 1.34 0 0.68 0 0 Z " fill="#D6D6D6" transform="translate(146,85)"/>
<path d="M0 0 C0.99 0.33 1.98 0.66 3 1 C2.38253906 1.47308594 1.76507813 1.94617188 1.12890625 2.43359375 C-5.02518022 7.23883935 -10.59930296 12.36449005 -16 18 C-16 15 -16 15 -14.85424805 13.49780273 C-14.32871338 12.98161377 -13.80317871 12.4654248 -13.26171875 11.93359375 C-12.68873047 11.36576172 -12.11574219 10.79792969 -11.52539062 10.21289062 C-10.91888672 9.62701172 -10.31238281 9.04113281 -9.6875 8.4375 C-9.09259766 7.84775391 -8.49769531 7.25800781 -7.88476562 6.65039062 C-5.3291722 4.14048378 -2.99591163 1.99727442 0 0 Z " fill="#E8E8E8" transform="translate(109,105)"/>
<path d="M0 0 C2.97 0.99 5.94 1.98 9 3 C9 3.66 9 4.32 9 5 C9.70125 5.226875 10.4025 5.45375 11.125 5.6875 C14.69343613 7.31656867 17.06514511 9.40640731 20 12 C19.01 12.33 18.02 12.66 17 13 C14.765625 11.453125 14.765625 11.453125 12.25 9.25 C8.26500094 5.90774272 4.89340547 3.70205408 0 2 C0 1.34 0 0.68 0 0 Z " fill="#AEB3B7" transform="translate(241,98)"/>
<path d="M0 0 C5.37740696 0.56567528 9.88733392 1.88230558 14.875 3.9375 C15.88820312 4.33485352 15.88820312 4.33485352 16.921875 4.74023438 C21.87146495 6.74292991 21.87146495 6.74292991 23 9 C17.67845466 8.01452864 13.62108277 6.88817673 9 4 C6.03293932 2.89176002 3.0271963 1.92992305 0 1 C0 0.67 0 0.34 0 0 Z " fill="#C2C2C2" transform="translate(210,85)"/>
<path d="M0 0 C0.66 0.33 1.32 0.66 2 1 C0.58611621 2.75224914 -0.83122783 4.50170655 -2.25 6.25 C-3.03890625 7.22453125 -3.8278125 8.1990625 -4.640625 9.203125 C-6.66465805 11.60247544 -8.74122349 13.82411437 -11 16 C-10.34938905 14.32700041 -9.67966676 12.66140763 -9 11 C-8.731875 10.34 -8.46375 9.68 -8.1875 9 C-6.53546196 6.21762015 -4.33692179 4.2200757 -2 2 C-1.34 1.34 -0.68 0.68 0 0 Z " fill="#DFE6EC" transform="translate(50,86)"/>
<path d="M0 0 C3.83520308 3.28731693 6.32465344 7.25147171 8 12 C7.67 12.66 7.34 13.32 7 14 C3 8.25 3 8.25 3 6 C2.34 6 1.68 6 1 6 C0.67 4.02 0.34 2.04 0 0 Z " fill="#D3D3D3" transform="translate(277,132)"/>
<path d="M0 0 C0.33 0 0.66 0 1 0 C0.40546697 9.59453303 0.40546697 9.59453303 -3 13 C-2.88490339 11.58249437 -2.75746342 10.16598831 -2.625 8.75 C-2.55539063 7.96109375 -2.48578125 7.1721875 -2.4140625 6.359375 C-1.98492887 3.914123 -1.21399362 2.15163097 0 0 Z " fill="#DBDBDB" transform="translate(68,158)"/>
<path d="M0 0 C0.66 0.33 1.32 0.66 2 1 C1.45144652 5.571279 0.58255197 9.67435795 -1 14 C-1.33 14 -1.66 14 -2 14 C-1.85866501 12.22880197 -1.71176792 10.45804713 -1.5625 8.6875 C-1.48128906 7.70136719 -1.40007812 6.71523437 -1.31640625 5.69921875 C-1 3 -1 3 0 0 Z " fill="#EFEFEF" transform="translate(66,168)"/>
<path d="M0 0 C-2.34914492 2.34914492 -3.95679446 2.73140357 -7.125 3.625 C-8.49011719 4.01558594 -8.49011719 4.01558594 -9.8828125 4.4140625 C-10.58148438 4.60742188 -11.28015625 4.80078125 -12 5 C-11 2 -11 2 -8.8125 0.8125 C-5.74609689 -0.07334979 -3.17561845 -0.14770318 0 0 Z " fill="#F1F1F1" transform="translate(153,87)"/>
<path d="M0 0 C3.81684226 1.55500981 6.19195732 4.03595495 9 7 C5.13066838 6.42676569 2.84777943 4.61046448 0 2 C0 1.34 0 0.68 0 0 Z " fill="#9BACB9" transform="translate(252,104)"/>
<path d="M0 0 C-6.39130435 4.26086957 -6.39130435 4.26086957 -10.3125 3.625 C-10.869375 3.41875 -11.42625 3.2125 -12 3 C-4.71428571 -0.42857143 -4.71428571 -0.42857143 0 0 Z " fill="#E2E2E2" transform="translate(141,90)"/>
</svg>
