<?xml version="1.0" encoding="utf-8"?>
<!-- Generator: Adobe Illustrator 29.5.1, SVG Export Plug-In . SVG Version: 9.03 Build 0)  -->
<svg version="1.0" id="Calque_1" xmlns="http://www.w3.org/2000/svg" xmlns:xlink="http://www.w3.org/1999/xlink" x="0px" y="0px"
	 viewBox="0 0 153 173.3" style="enable-background:new 0 0 153 173.3;" xml:space="preserve">
<style type="text/css">
	.st0{fill:#FFFFFF;}
	.st1{fill:#F39130;}
</style>
<g>
	<path class="st0" d="M68.4,2.8c-2.8,1.5-18.6,10.5-35.1,20.1C12.2,35.1,2.8,41.1,1.6,43C0.4,45.1,0,48.4,0,56.2v10.4l7.3,4.1
		l7.2,4.2l0.7-9c1.2-15.5,1.3-15.6,35.2-34.9c23.1-13.2,26.4-14.1,35.2-9.7c13.3,6.7,45.2,26.1,47.6,28.9c4.3,5,5,10.6,4.6,39.3
		c-0.4,35.6,2.8,30.8-35.2,52.6c-19.5,11.1-20.1,11.4-26.1,11.4c-5.9,0-6.6-0.3-24.7-10.7c-10.3-6-19-10.8-19.3-10.8
		s-0.4,3.9-0.3,8.7l0.3,8.7l10,6c5.5,3.2,15.2,8.8,21.5,12.4c13.1,7.3,12.5,7.3,25,0.2c36.1-20.5,59.9-34.6,61.8-36.6l2.2-2.5V86.7
		c0-35.6-0.2-42.6-1.5-44.4c-0.8-1.1-17.1-11.1-36.3-22.2C88.6,4.8,79.5,0,76.9,0C75,0,71.2,1.2,68.4,2.8z"/>
	<path class="st1" d="M54.9,34.6c-10.1,5.8-20.8,12-23.7,13.6c-2.9,1.7-5.9,4-6.7,5.2c-1,1.6-1.4,8.8-1.7,31.1
		c-0.3,26.4-0.1,29.2,1.5,31.5c0.9,1.4,12.4,8.7,25.5,16.3c21.6,12.6,24.1,13.8,27.7,13.4c4.9-0.5,44-22.5,49.8-27.9
		c3.5-3.4,3.7-4,3.7-9.4v-5.9l-4.9-2.8c-2.7-1.5-5.2-2.7-5.5-2.7s-0.6,2.6-0.6,5.7c0,3.2-0.4,6.3-0.8,6.9
		c-0.4,0.7-7.9,5.4-16.7,10.5s-17.8,10.3-20,11.6c-2.2,1.2-4.7,2.3-5.5,2.3s-10.7-5.3-22-11.8l-20.5-11.7l-0.3-25.2L34,60.2l2.7-2
		C43.8,53.3,75.2,36,77.1,36c1.1,0,5.8,2.2,10.4,4.9c4.5,2.7,9.7,5.7,11.4,6.5l3.1,1.7v-6.5v-6.4l-10.8-6.1
		C83.6,25.9,79.3,24,76.8,24C74.2,24,68.7,26.6,54.9,34.6z"/>
	<path class="st0" d="M87.4,51.7c-0.5,1.9-0.2,3,1.1,4c1.1,0.7,2.2,1.3,2.5,1.3s1.4-0.6,2.5-1.3c1.3-1,1.6-2.1,1.1-4
		C94.1,49.5,93.4,49,91,49S87.9,49.5,87.4,51.7z"/>
	<path class="st0" d="M98.7,55.8c-2.3,2.5-2.1,5.5,0.3,7.7c3.2,2.9,7.4,1,7.8-3.5C107.3,54.6,102.2,51.9,98.7,55.8z"/>
	<path class="st0" d="M115.2,59.3c-6.1,6.5,0.8,16.3,8.6,12.3c4.9-2.5,5.7-8.2,1.7-12.1C122.4,56.3,118.1,56.2,115.2,59.3z"/>
	<path class="st0" d="M92.6,70.2c-1.3,1.9-1.4,2.5-0.2,4.3c2.6,4,7.9,2.7,7.9-2S95.3,66.4,92.6,70.2z"/>
	<path class="st0" d="M80.3,74c-2.5,1-3.8,4.8-2.9,8.4c1.2,4.7,9.2,5.2,11.5,0.7c1.7-3,1.3-5-1.4-7.6C84.9,72.8,83.8,72.6,80.3,74z"
		/>
	<path class="st0" d="M100.4,80.9c-9.5,5.8-5.2,20.1,6,20.1c8,0,12.9-6.6,10.7-14.1C115,79.8,106.9,76.9,100.4,80.9z"/>
</g>
</svg>
