<?xml version="1.0" encoding="utf-8"?>
<!-- Generator: Adobe Illustrator 29.5.1, SVG Export Plug-In . SVG Version: 9.03 Build 0)  -->
<svg version="1.0" id="Calque_1" xmlns="http://www.w3.org/2000/svg" xmlns:xlink="http://www.w3.org/1999/xlink" x="0px" y="0px"
	 viewBox="0 0 1043 178" style="enable-background:new 0 0 1043 178;" xml:space="preserve">
<style type="text/css">
	.st0{fill:#373737;}
	.st1{fill:#F39130;}
</style>
<path class="st0" d="M69.4,3.8c-2.8,1.5-18.6,10.5-35.1,20.1C13.2,36.1,3.8,42.1,2.6,44C1.4,46.1,1,49.4,1,57.2v10.4l7.3,4.1
	l7.2,4.2l0.7-9c1.2-15.5,1.3-15.6,35.2-34.9c23.1-13.2,26.4-14.1,35.2-9.7c13.3,6.7,45.2,26.1,47.6,28.9c4.3,5,5,10.6,4.6,39.3
	c-0.4,35.6,2.8,30.8-35.2,52.6c-19.5,11.1-20.1,11.4-26.1,11.4c-5.9,0-6.6-0.3-24.7-10.7c-10.3-6-19-10.8-19.3-10.8
	s-0.4,3.9-0.3,8.7l0.3,8.7l10,6c5.5,3.2,15.2,8.8,21.5,12.4c13.1,7.3,12.5,7.3,25,0.2c36.1-20.5,59.9-34.6,61.8-36.6l2.2-2.5V87.7
	c0-35.6-0.2-42.6-1.5-44.4c-0.8-1.1-17.1-11.1-36.3-22.2C89.6,5.8,80.5,1,77.9,1C76,1,72.2,2.2,69.4,3.8z"/>
<path class="st1" d="M55.9,35.6c-10.1,5.8-20.8,12-23.7,13.6c-2.9,1.7-5.9,4-6.7,5.2c-1,1.6-1.4,8.8-1.7,31.1
	c-0.3,26.4-0.1,29.2,1.5,31.5c0.9,1.4,12.4,8.7,25.5,16.3c21.6,12.6,24.1,13.8,27.7,13.4c4.9-0.5,44-22.5,49.8-27.9
	c3.5-3.4,3.7-4,3.7-9.4v-5.9l-4.9-2.8c-2.7-1.5-5.2-2.7-5.5-2.7c-0.3,0-0.6,2.6-0.6,5.7c0,3.2-0.4,6.3-0.8,6.9
	c-0.4,0.7-7.9,5.4-16.7,10.5s-17.8,10.3-20,11.6c-2.2,1.2-4.7,2.3-5.5,2.3c-0.8,0-10.7-5.3-22-11.8l-20.5-11.7l-0.3-25.2L35,61.2
	l2.7-2C44.8,54.3,76.2,37,78.1,37c1.1,0,5.8,2.2,10.4,4.9c4.5,2.7,9.7,5.7,11.4,6.5l3.1,1.7v-6.5v-6.4l-10.8-6.1
	C84.6,26.9,80.3,25,77.8,25C75.2,25,69.7,27.6,55.9,35.6z"/>
<path class="st0" d="M569.3,37.8c-11.3,4-16.6,11.4-16.6,23.1c0,13.4,5.2,17.8,26.7,22.5c15,3.3,19.9,5.5,22.1,10.3
	c2.1,4.3,1.5,10.4-1.3,14.2c-3.1,4.3-9.4,7.1-16.9,7.8c-9,0.7-16.7-1-23.9-5.3l-5.9-3.5l-2.2,2.6c-1.3,1.4-2.3,3-2.3,3.6
	c0,1.6,9.1,6.9,15,8.7c7.8,2.3,23.8,2.3,30.8-0.2c10.7-3.7,16.1-11.2,16.2-22.3c0-14-4.6-18.1-26.7-23.4
	c-15.4-3.7-18.3-4.8-21.2-8.5c-1.9-2.4-2.2-3.8-1.9-8c0.9-10.5,7.1-14.9,21.4-14.9c8.3,0,9.6,0.3,15.5,3.3l6.4,3.3l2.3-2.6
	c1.2-1.4,2.2-3.1,2.2-3.6c0-0.6-3.5-2.7-7.7-4.7c-7-3.3-8.7-3.7-17.3-3.9C576.7,36,573.3,36.4,569.3,37.8z"/>
<path class="st0" d="M176,80.1v43.1l19.3-0.4c21.7-0.4,25.6-1.4,32.9-8.5c6.4-6.2,7.3-10.6,7.3-35.3V57.5l-2.9-5.8
	c-1.8-3.8-4.3-6.9-6.9-8.8c-6.8-4.9-12.1-5.9-31.9-5.9H176V80.1z M216.6,47.5c2.8,1.4,6,4,7.4,6.2c2.4,3.5,2.5,4.2,2.8,23.7
	c0.4,22.2-0.2,25.7-4.9,31.1c-4.4,5-10.5,6.5-25.6,6.5H184V80V45h13.8C210.5,45,212,45.2,216.6,47.5z"/>
<path class="st0" d="M256,41v4h4.5h4.5v-4v-4h-4.5H256V41z"/>
<path class="st0" d="M352,41v4h4.5h4.5v-4v-4h-4.5H352V41z"/>
<path class="st0" d="M486,75.2c0,36.7,0.1,38.4,2,41.6c2.5,4.1,7.3,6.2,14,6.2h5v-4v-4h-4.4c-3.6,0-4.8-0.5-6.5-2.6
	c-2-2.6-2.1-3.8-2.1-39V37h-4h-4V75.2z"/>
<path class="st0" d="M382,51.9V61h-3c-2.8,0-3,0.2-3,4c0,3.8,0.2,4,3,4h3v20.7c0,22.5,0.6,26.7,4.6,30.4c2.1,2,3.8,2.4,10,2.7
	l7.5,0.4l-0.3-3.8c-0.3-3.8-0.4-3.9-4.8-4.2c-8-0.6-8-0.6-8-24.9V69h6.6h6.5l-0.3-3.8l-0.3-3.7l-6.2-0.3l-6.2-0.3l-0.3-8.7l-0.3-8.7
	l-4.2-0.3l-4.3-0.3V51.9z"/>
<path class="st0" d="M88.4,52.7c-0.5,1.9-0.2,3,1.1,4c1.1,0.7,2.2,1.3,2.5,1.3c0.3,0,1.4-0.6,2.5-1.3c1.3-1,1.6-2.1,1.1-4
	C95.1,50.5,94.4,50,92,50S88.9,50.5,88.4,52.7z"/>
<path class="st0" d="M99.7,56.8c-2.3,2.5-2.1,5.5,0.3,7.7c3.2,2.9,7.4,1,7.8-3.5C108.3,55.6,103.2,52.9,99.7,56.8z"/>
<path class="st0" d="M116.2,60.3c-6.1,6.5,0.8,16.3,8.6,12.3c4.9-2.5,5.7-8.2,1.7-12.1C123.4,57.3,119.1,57.2,116.2,60.3z"/>
<path class="st0" d="M256.7,61.7c-0.4,0.3-0.7,14.3-0.7,31V123h4.5h4.5V92V61h-3.8C259.1,61,257,61.3,256.7,61.7z"/>
<path class="st0" d="M294.5,62.2c-4.3,2.3-8.5,7.4-10.1,12c-1.2,3.8-1.5,8.1-1.2,20.2c0.3,15,0.4,15.4,3.3,20.1c1.9,3,4.5,5.6,7,6.9
	c8.1,4.2,25,1.8,28.4-4.1c2.1-3.7,1.2,9.8-0.9,14.3c-2.5,5-5.2,7-11.5,8.4c-5.8,1.3-10.7,0.1-16.2-3.9l-4.1-2.9l-2.6,2.7l-2.6,2.7
	l2.7,2.6c5.5,5.1,9.1,6.3,18.8,6.3c10.3,0,14.9-1.8,20.3-7.9c5.4-6.1,5.7-8.9,5.7-45.1v-33l-4.2-0.3l-4.3-0.3V65v4.2l-3-2.9
	c-1.6-1.5-4.5-3.3-6.2-4C309.6,60.8,297.1,60.7,294.5,62.2z M314.6,69.6c2,1,4.5,3.4,5.9,5.9c2.3,3.8,2.5,5.2,2.5,16.6
	c0,11-0.3,12.9-2.3,16.3c-5.8,10.4-21.2,10.7-27.1,0.6c-1.6-2.7-2.1-5.8-2.4-13.4c-0.7-15.8,1.6-22.2,9.3-26.4
	C303.5,67.5,310.7,67.8,314.6,69.6z"/>
<path class="st0" d="M352.7,61.7c-0.4,0.3-0.7,14.3-0.7,31V123h4.5h4.5V92V61h-3.8C355.1,61,353,61.3,352.7,61.7z"/>
<path class="st0" d="M430.5,62.6c-2.2,0.8-5.3,2.5-7,3.8c-2.5,2-2.7,2.6-1.6,3.9c2.3,2.8,5,2.9,9.9,0.5c6-2.9,15.5-3.2,19.5-0.5
	c4.1,2.6,6.7,7.6,6.7,12.4V87h-13.4c-14.3,0-18.4,0.9-22.2,5.2c-3.6,3.8-4.4,6.4-4.4,13.1c0,5,0.5,7.1,2.3,9.8
	c6,8.9,22.1,11.4,36,5.4c1.2-0.5,1.7-0.3,1.7,0.9c0,1.2,1,1.6,4.5,1.6h4.5v-21.3c0-24.3-0.9-29.3-6.2-34.4c-1.8-1.8-5-3.9-7-4.7
	C449.1,60.6,436,60.6,430.5,62.6z M458,103.5v8.4l-3.2,1.8c-4.8,2.5-19.2,2.5-23.5-0.1c-6-3.7-7.1-10.9-2.4-15.7l2.9-2.9h13.1H458
	V103.5z"/>
<path class="st0" d="M639.2,63.1c-10,5-13.6,13.8-13,31.8c0.3,9.4,0.8,12.4,2.5,15.7c6.5,12.3,22.5,16.7,36.6,10
	c2.8-1.4,6.1-3.2,7.1-4c1.9-1.6,1.9-1.7-0.8-4.5l-2.9-3l-3.1,2.3c-6.9,5.2-17.2,5.9-24.1,1.6c-3.8-2.4-7.5-9.1-7.5-13.8V96h21.1
	h21.2l-0.5-8.8c-0.8-13.2-4.7-20.3-13.3-24.3C656.7,60.2,644.9,60.3,639.2,63.1z M660.5,70.9c3.6,2,7.5,9.2,7.5,13.8V88h-17.1h-17.2
	l0.6-4.6C635.6,71.2,649.3,64.7,660.5,70.9z"/>
<path class="st0" d="M693,92v31h4h4v-21.8c0-24.2,0.6-26.9,6.9-30.6c4.5-2.6,14-2.5,18.5,0.3c6.1,3.8,6.6,6.3,6.6,30.5V123h4.5h4.5
	v-21.3c0-23.5-0.9-29.1-5.7-34.8c-3.6-4.3-8-5.9-15.8-5.9c-7.4,0-12.6,1.8-16.7,5.7l-2.8,2.7v-4.2V61h-4h-4V92z"/>
<path class="st0" d="M770.5,62.5c-7.6,2.9-11.5,8.7-11.5,17c0,10.2,4.9,13.7,22,15.5c12.6,1.3,13.9,1.6,16.8,4.3
	c2.4,2.2,3,7.4,1.2,10.6c-1.5,2.9-5.6,5.1-11.6,6.2c-6.7,1.2-13.4,0.1-21.3-3.8l-5.4-2.6l-2.4,2.9l-2.3,2.9l2.3,1.7
	c3.8,3,12.6,5.8,20,6.4c13.1,1.1,25.1-3.6,28.3-11.2c2.2-5.2,1.8-12.5-0.9-16.5c-3.2-4.9-7.9-6.7-19.8-7.9
	c-16.1-1.6-18.9-3.1-18.9-9.7c0-10.7,15.9-13.5,33-5.9c1.1,0.4,2.3-0.3,3.8-2.4l2.3-3.1l-5.8-2.6c-4.9-2.3-7.4-2.8-15.8-3
	C777.5,61.1,773.3,61.5,770.5,62.5z"/>
<path class="st0" d="M835.2,63.1c-10,5-13.6,13.8-13,31.8c0.3,9.4,0.8,12.4,2.5,15.7c6.5,12.3,22.5,16.7,36.6,10
	c2.8-1.4,6.1-3.2,7.1-4c1.9-1.6,1.9-1.7-0.8-4.5l-2.9-3l-3.1,2.3c-6.9,5.2-17.2,5.9-24.1,1.6c-3.8-2.4-7.5-9.1-7.5-13.8V96h21.1
	h21.2l-0.5-8.8c-0.8-13.2-4.7-20.3-13.3-24.3C852.7,60.2,840.9,60.3,835.2,63.1z M856.5,70.9c3.6,2,7.5,9.2,7.5,13.8V88h-17.1h-17.2
	l0.6-4.6C831.6,71.2,845.3,64.7,856.5,70.9z"/>
<path class="st0" d="M93.6,71.2c-1.3,1.9-1.4,2.5-0.2,4.3c2.6,4,7.9,2.7,7.9-2S96.3,67.4,93.6,71.2z"/>
<path class="st0" d="M81.3,75c-2.5,1-3.8,4.8-2.9,8.4c1.2,4.7,9.2,5.2,11.5,0.7c1.7-3,1.3-5-1.4-7.6C85.9,73.8,84.8,73.6,81.3,75z"
	/>
<path class="st0" d="M101.4,81.9c-9.5,5.8-5.2,20.1,6,20.1c8,0,12.9-6.6,10.7-14.1C116,80.8,107.9,77.9,101.4,81.9z"/>
<path class="st1" d="M899.5,83c-6.1,2.5-8.9,10.2-6,16.4c2.1,4.4,5.9,6.6,11.6,6.6c3.3,0,4.7-0.6,7.5-3.4c2.9-2.9,3.4-4.1,3.4-8.3
	c0-2.8-0.7-5.8-1.6-7.1C911.4,82.8,904.5,80.9,899.5,83z"/>
<path class="st1" d="M939.5,83c-3.5,1.4-6.6,5.7-7.2,9.7c-1,7.7,4.3,13.3,12.8,13.3c3.3,0,4.7-0.6,7.5-3.4c2.9-2.9,3.4-4.1,3.4-8
	c0-2.7-0.7-5.8-1.6-7.2C951.3,82.8,944.7,80.8,939.5,83z"/>
<path class="st1" d="M981,84.2c-6.9,4.7-7.3,13.8-0.9,19.3c8.9,7.4,22.6-1.9,18.9-12.8C996.5,82.8,987.7,79.7,981,84.2z"/>
<path class="st1" d="M1025.5,83c-3.5,1.4-6.6,5.7-7.2,9.7c-1,7.7,4.3,13.3,12.8,13.3c3.3,0,4.7-0.6,7.5-3.4c2.8-2.8,3.4-4.2,3.4-7.5
	C1042,85.5,1033.9,79.5,1025.5,83z"/>
<path class="st1" d="M601,132.5c0,1.1,1.2,1.5,5,1.5h5v15.5c0,13.1,0.2,15.5,1.5,15.5s1.5-2.4,1.5-15.5V134h5c3.8,0,5-0.4,5-1.5
	c0-1.2-1.9-1.5-11.5-1.5C602.9,131,601,131.3,601,132.5z"/>
<path class="st1" d="M675,148c0,14.4,0.2,17,1.5,17c1.2,0,1.5-1.7,1.5-9.4c0-8.7,0.2-9.6,2.2-11c3.1-2.2,6.4-2,8.8,0.4
	c1.7,1.7,2,3.3,2,11c0,7.6,0.3,9,1.6,9c2.5,0,1.7-19-1-21.9c-2.3-2.5-8.1-2.8-11.4-0.5l-2.2,1.5v-6.5c0-5.2-0.3-6.6-1.5-6.6
	C675.2,131,675,133.6,675,148z"/>
<path class="st1" d="M754,146c0,13.7,0.2,15.2,2,17c2.3,2.3,6,2.7,6,0.6c0-0.8-1-1.6-2.2-1.8c-2.3-0.3-2.3-0.6-2.6-15.6
	c-0.2-12.6-0.5-15.2-1.7-15.2C754.2,131,754,133.5,754,146z"/>
<path d="M821,132.5c0,0.8,0.5,1.5,1,1.5c0.6,0,1-0.7,1-1.5c0-0.8-0.4-1.5-1-1.5C821.5,131,821,131.7,821,132.5z"/>
<path class="st1" d="M628.6,143.3c-5,5-4.1,17.3,1.4,20.2c1.6,0.8,4,1.5,5.4,1.5c2.7,0,7.6-1.9,7.6-3c0-1.6-1.3-1.7-4-0.4
	c-4.9,2.5-11-0.7-11-5.8c0-1.6,1-1.8,8-1.8h8v-4c0-5.6-3.4-9-9-9C632,141,630.3,141.6,628.6,143.3z M639.9,145.6
	c1.2,1.5,2.1,3.5,2.1,4.5c0,1.7-0.8,1.9-7,1.9c-6.7,0-7-0.1-7-2.4c0-2.9,4.2-6.6,7.6-6.6C636.8,143,638.8,144.2,639.9,145.6z"/>
<path class="st1" d="M653.3,143.4c-2.6,2.2-2.8,3-2.8,9.6c0,6.7,0.2,7.3,2.9,9.7c2.5,2.1,3.7,2.4,7.8,2.1c4.9-0.5,8.5-2.5,7-4
	c-0.5-0.5-2.2-0.1-3.9,0.7c-6.6,3.3-11.3-0.6-11.3-9.1c0-4.5,0.4-5.6,2.6-7.3c3.1-2.5,6.1-2.7,9-0.7c1.2,0.8,2.6,1.1,3.3,0.7
	c2.2-1.4-2.9-4.1-7.6-4.1C657.3,141,655.3,141.7,653.3,143.4z"/>
<path class="st1" d="M702,153c0,10,0.3,12,1.5,12s1.5-1.7,1.5-9.4c0-8.7,0.2-9.6,2.2-11c3.1-2.2,6.4-2,8.8,0.4c1.7,1.7,2,3.3,2,11
	c0,7.6,0.3,9,1.6,9c2.5,0,1.7-19-1-21.9c-2.3-2.5-8.1-2.8-11.4-0.5c-2,1.4-2.2,1.4-2.2,0c0-0.9-0.7-1.6-1.5-1.6
	C702.3,141,702,143,702,153z"/>
<path class="st1" d="M730.5,143.4c-2.8,2.8-4,8.1-3,13.2c1.3,7.3,9.4,10.9,15.2,6.9c5.2-3.6,5.5-16.6,0.6-20.5
	C739.6,140.1,733.6,140.3,730.5,143.4z M741.4,145.1c2.2,1.7,2.6,2.8,2.6,7.4c0,6-1.9,9-6.2,10.1c-2.1,0.4-3.3,0-5.2-2
	c-3.7-3.6-3.7-11.6-0.1-15.1C735.5,142.5,737.9,142.4,741.4,145.1z"/>
<path class="st1" d="M770.5,143.4c-2.8,2.8-4,8.1-3,13.2c1.3,7.3,9.4,10.9,15.2,6.9c5.2-3.6,5.5-16.6,0.6-20.5
	C779.6,140.1,773.6,140.3,770.5,143.4z M781.5,145.5c3.1,3,3.5,11.1,0.8,14.3c-3,3.5-6.8,3.8-9.7,0.8c-3.7-3.6-3.7-11.6-0.1-15.1
	c1.3-1.4,3.4-2.5,4.5-2.5C778.2,143,780.2,144.1,781.5,145.5z"/>
<path class="st1" d="M796.1,142.9c-2.3,2.3-3.6,9.6-2.7,14.6c1.3,6.6,8.1,9.7,13.4,5.9c2.1-1.5,2.2-1.4,2.2,1.3
	c0,4.6-2.5,7.3-6.9,7.3c-2,0-4.2-0.5-4.8-1.1c-0.6-0.6-1.7-0.8-2.4-0.4c-2.2,1.4,2.1,3.5,7,3.5c8.7-0.1,10.1-2.9,10.1-19.9
	c0-11-0.2-13.1-1.5-13.1c-0.8,0-1.5,0.7-1.5,1.6c0,1.4-0.2,1.4-2.2,0C803.7,140.4,798.4,140.6,796.1,142.9z M806.8,144.6
	c1.9,1.3,2.2,2.4,2.2,8c0,7.2-2,10.4-6.5,10.4c-4.4,0-6.5-3.2-6.5-10c0-4.7,0.4-6.4,2-8C800.4,142.6,803.7,142.4,806.8,144.6z"/>
<path class="st1" d="M821,153c0,7.3,0.4,12,1,12c0.6,0,1-4.7,1-12c0-7.3-0.4-12-1-12C821.4,141,821,145.7,821,153z"/>
<path class="st1" d="M834.6,143.3c-5,5-4.1,17.3,1.4,20.2c1.6,0.8,4,1.5,5.4,1.5c2.7,0,7.6-1.9,7.6-3c0-1.6-1.3-1.7-4.1-0.3
	c-4.7,2.3-10.9-0.7-10.9-5.4c0-2.2,0.3-2.3,8-2.3h8v-4c0-5.6-3.4-9-9-9C838,141,836.3,141.6,834.6,143.3z M845.9,145.6
	c1.2,1.5,2.1,3.5,2.1,4.5c0,1.7-0.8,1.9-7,1.9c-6.7,0-7-0.1-7-2.4c0-2.9,4.2-6.6,7.6-6.6C842.8,143,844.8,144.2,845.9,145.6z"/>
<path class="st1" d="M860.7,142.1c-2.9,1.7-4,5.8-2.3,8.5c1.2,1.7,2.9,2.4,7.1,2.9c5.3,0.7,8.5,2.4,8.5,4.6c0,0.5-0.9,1.8-2,2.9
	c-2.4,2.4-7.3,2.6-11.2,0.6c-2.5-1.3-3.8-1.2-3.8,0.5c0,1.2,6,2.9,10,2.9c4.9,0,9-3.2,9-7c0-4-2.1-5.7-8.2-6.4
	c-6.7-0.9-8.1-1.7-7.6-4.7c0.4-3.2,4.6-4.6,9.8-3.2c4.6,1.2,6.5-0.2,2.5-1.7C869.1,140.7,863,140.8,860.7,142.1z"/>
</svg>
